<svg xmlns="http://www.w3.org/2000/svg" width="1600" height="900" viewBox="0 0 1600 900">
  <rect width="1600" height="900" fill="#fff8e8"/>
  <rect x="300" y="30" width="1000" height="90" rx="28" fill="#ffe93b"/>
  <text x="800" y="90" text-anchor="middle" font-family="Arial" font-size="58" font-weight="800" fill="#111827">Hybrid Cloud GenAI Analytics Flow</text>

  <defs>
    <marker id="arrow" markerWidth="12" markerHeight="12" refX="10" refY="6" orient="auto"><path d="M2 2 L10 6 L2 10 Z" fill="#111827"/></marker>
  </defs>

  <g font-family="Arial" fill="#111827">
    <rect x="110" y="170" width="390" height="240" rx="30" fill="#dbeeff" stroke="#111827" stroke-width="5"/>
    <text x="65" y="250" font-size="86" font-weight="800" fill="#8ab4ff" stroke="#111827" stroke-width="3">1.</text>
    <text x="305" y="250" text-anchor="middle" font-size="36" font-weight="800">Data Sources</text>
    <rect x="160" y="290" width="290" height="54" rx="16" fill="#ffffff" stroke="#9ca3af" stroke-width="2"/>
    <text x="305" y="325" text-anchor="middle" font-size="24" font-weight="700">Cloud Logs | IoT | On-Prem</text>
    <text x="305" y="380" text-anchor="middle" font-size="42">☁  📡  🖥</text>

    <rect x="610" y="170" width="390" height="240" rx="30" fill="#ddf8dc" stroke="#111827" stroke-width="5"/>
    <text x="560" y="250" font-size="86" font-weight="800" fill="#7be08d" stroke="#111827" stroke-width="3">2.</text>
    <text x="805" y="250" text-anchor="middle" font-size="36" font-weight="800">Backend API</text>
    <rect x="725" y="290" width="160" height="54" rx="16" fill="#ffffff" stroke="#9ca3af" stroke-width="2"/>
    <text x="805" y="325" text-anchor="middle" font-size="26" font-weight="700">FastAPI</text>
    <circle cx="805" cy="365" r="38" fill="#14b8a6" stroke="#111827" stroke-width="5"/>
    <text x="805" y="380" text-anchor="middle" font-size="42" fill="#ffffff">⚡</text>

    <rect x="1110" y="170" width="390" height="240" rx="30" fill="#fff3b8" stroke="#111827" stroke-width="5"/>
    <text x="1060" y="250" font-size="86" font-weight="800" fill="#ffe066" stroke="#111827" stroke-width="3">3.</text>
    <text x="1305" y="250" text-anchor="middle" font-size="36" font-weight="800">Validation + Security</text>
    <rect x="1210" y="290" width="190" height="54" rx="16" fill="#ffffff" stroke="#9ca3af" stroke-width="2"/>
    <text x="1305" y="325" text-anchor="middle" font-size="24" font-weight="700">Masking | RBAC</text>
    <text x="1305" y="385" text-anchor="middle" font-size="50">🛡  👥</text>

    <rect x="110" y="570" width="390" height="240" rx="30" fill="#edddff" stroke="#111827" stroke-width="5"/>
    <text x="65" y="650" font-size="86" font-weight="800" fill="#b990ff" stroke="#111827" stroke-width="3">4.</text>
    <text x="305" y="650" text-anchor="middle" font-size="36" font-weight="800">Data Layer</text>
    <rect x="195" y="690" width="220" height="54" rx="16" fill="#ffffff" stroke="#9ca3af" stroke-width="2"/>
    <text x="305" y="725" text-anchor="middle" font-size="24" font-weight="700">Data Lake + DB</text>
    <text x="305" y="785" text-anchor="middle" font-size="50">🪣  🗄</text>

    <rect x="610" y="570" width="390" height="240" rx="30" fill="#ffe4c7" stroke="#111827" stroke-width="5"/>
    <text x="560" y="650" font-size="86" font-weight="800" fill="#fb923c" stroke="#111827" stroke-width="3">5.</text>
    <text x="805" y="650" text-anchor="middle" font-size="36" font-weight="800">AI Analysis</text>
    <rect x="670" y="690" width="270" height="54" rx="16" fill="#ffffff" stroke="#9ca3af" stroke-width="2"/>
    <text x="805" y="725" text-anchor="middle" font-size="23" font-weight="700">RAG | Mock GenAI / Bedrock</text>
    <text x="805" y="785" text-anchor="middle" font-size="52">🤖  🧠</text>

    <rect x="1110" y="570" width="390" height="240" rx="30" fill="#ddf1ff" stroke="#111827" stroke-width="5"/>
    <text x="1060" y="650" font-size="86" font-weight="800" fill="#75baff" stroke="#111827" stroke-width="3">6.</text>
    <text x="1305" y="650" text-anchor="middle" font-size="36" font-weight="800">Business Output</text>
    <rect x="1195" y="690" width="220" height="54" rx="16" fill="#ffffff" stroke="#9ca3af" stroke-width="2"/>
    <text x="1305" y="725" text-anchor="middle" font-size="24" font-weight="700">Reports | RCA | Insights</text>
    <text x="1305" y="785" text-anchor="middle" font-size="50">📊  🔎  💡</text>
  </g>

  <path d="M500 290 H610" stroke="#111827" stroke-width="7" marker-end="url(#arrow)"/>
  <path d="M1000 290 H1110" stroke="#111827" stroke-width="7" marker-end="url(#arrow)"/>
  <path d="M1305 410 V480 H305 V570" fill="none" stroke="#111827" stroke-width="7" marker-end="url(#arrow)"/>
  <path d="M500 690 H610" stroke="#111827" stroke-width="7" marker-end="url(#arrow)"/>
  <path d="M1000 690 H1110" stroke="#111827" stroke-width="7" marker-end="url(#arrow)"/>
</svg>
